<svg version="1.1" id="Layer_1" xmlns="http://www.w3.org/2000/svg" xmlns:xlink="http://www.w3.org/1999/xlink" x="0px" y="0px"
	 width="100%" viewBox="0 0 1024 544" enable-background="new 0 0 1024 544" xml:space="preserve">
<path fill="#000000" opacity="1.000000" stroke="none" 
	d="
M184.805511,294.822235 
	C167.969696,312.401733 151.309219,329.662537 134.853485,347.116425 
	C131.840942,350.311676 129.680435,350.923889 127.145058,347.022461 
	C125.755028,344.883514 123.846329,344.469574 121.512413,345.280518 
	C120.416351,345.661316 119.266197,345.889282 118.136314,346.169403 
	C106.522003,349.048981 106.521675,349.048096 100.283714,338.560028 
	C100.113449,338.273743 99.948334,337.984375 99.783569,337.694855 
	C93.635880,326.891815 93.635925,326.891785 102.354736,318.035706 
	C109.225067,311.057220 105.937843,299.249023 96.431969,296.760284 
	C84.845253,293.726746 84.845253,293.726715 84.737335,281.750092 
	C84.613693,268.029205 84.595276,267.957489 98.082985,264.494019 
	C101.367172,263.650726 103.028427,262.321533 104.446953,258.793671 
	C107.558830,251.054428 105.481461,245.831161 99.648750,240.513123 
	C93.583832,234.983383 93.940132,234.590775 97.790489,227.358032 
	C98.103485,226.770096 98.444855,226.197205 98.775703,225.618851 
	C106.303551,212.459381 106.328819,212.360657 120.896286,216.078293 
	C123.916664,216.849075 126.068481,216.500031 127.897438,214.050903 
	C128.094833,213.786560 128.336777,213.540115 128.601288,213.343521 
	C134.464355,208.986374 136.007523,203.877457 133.408478,196.616150 
	C130.444519,188.335388 131.054276,188.117737 138.539032,183.624390 
	C139.253174,183.195663 139.956787,182.749359 140.672089,182.322617 
	C153.179062,174.861023 153.251755,174.787720 163.586624,184.952255 
	C166.184998,187.507797 168.582642,187.519241 172.054138,187.131042 
	C180.515656,186.184784 184.022583,181.360535 184.823257,173.605209 
	C185.358459,168.421082 188.025131,166.450836 193.382355,166.328003 
	C198.716812,166.205673 203.988724,166.096970 209.315689,166.562927 
	C212.200150,166.815231 213.467377,168.159119 214.075012,170.690186 
	C214.618561,172.954346 215.393234,175.175323 215.772995,177.463959 
	C216.595413,182.420456 219.267242,184.549072 224.241714,186.239609 
	C231.003693,188.537613 235.054657,186.857635 239.285690,181.776169 
	C244.847534,175.096420 245.283081,175.278641 253.207947,179.058731 
	C253.658920,179.273834 254.103775,179.501846 254.550613,179.725540 
	C268.349884,186.634308 268.517456,186.672745 265.149261,201.377701 
	C264.299896,205.085892 265.271423,207.184525 267.891327,209.541107 
	C273.177979,214.296341 273.022705,214.404556 268.049805,219.610443 
	C263.332855,224.548431 258.566223,229.448502 254.060730,234.575546 
	C251.232849,237.793549 249.201401,237.963745 245.987167,234.767380 
	C232.891068,221.744095 217.184113,214.858231 198.448196,215.118408 
	C167.774277,215.544357 141.250015,237.901810 135.390594,268.517914 
	C133.580078,277.978119 133.725632,287.366974 136.253952,296.680908 
	C136.678970,298.246643 136.938446,299.943115 138.406219,301.078888 
	C140.783737,300.629883 141.935043,298.624603 143.375412,297.117950 
	C156.959518,282.908936 170.461090,268.621033 184.028748,254.396194 
	C188.981171,249.203888 189.168045,249.114319 194.451752,254.252319 
	C201.734940,261.334656 208.836517,268.606476 215.912842,275.897156 
	C218.027451,278.075836 219.590607,278.685822 222.005005,276.117188 
	C246.763626,249.776840 271.619843,223.528214 296.422607,197.229263 
	C297.537018,196.047638 298.976318,195.045792 299.396332,192.981186 
	C296.127350,188.050018 290.158661,185.229141 286.788177,178.955093 
	C307.124573,173.720230 326.954956,168.615616 348.220428,163.141586 
	C344.187592,185.038193 340.394379,205.633759 336.431000,227.153198 
	C331.197144,223.990463 328.040894,220.110199 324.749817,216.545624 
	C321.737610,213.283096 319.882599,213.413025 316.830719,216.655350 
	C286.003326,249.406693 255.026657,282.017548 224.074936,314.651764 
	C219.148270,319.846222 219.187119,319.731110 214.115829,314.701874 
	C206.087967,306.740601 197.944199,298.896210 189.607178,290.766083 
	C187.664932,291.078491 186.691971,293.266815 184.805511,294.822235 
z"/>
<path fill="#000000" opacity="1.000000" stroke="none" 
	d="
M297.068176,299.128296 
	C296.614075,299.868134 296.378845,300.314972 296.240814,300.790039 
	C292.649414,313.150635 292.534851,313.265808 301.530243,322.388092 
	C304.418945,325.317566 305.130219,327.713379 303.202789,331.532166 
	C300.796112,336.300507 298.065674,340.858215 295.488373,345.515961 
	C293.781006,348.601501 291.542755,349.283234 288.430939,348.145203 
	C287.650269,347.859711 286.847137,347.626160 286.041077,347.420898 
	C274.268127,344.422943 274.298309,344.452850 266.040497,353.579742 
	C264.671478,355.092865 264.000427,356.561066 264.642090,358.526947 
	C264.848816,359.160217 265.091766,359.786621 265.236786,360.434357 
	C268.795959,376.333405 271.456879,371.799255 256.946472,380.657684 
	C246.210098,387.212158 246.132828,386.981049 237.289719,378.347626 
	C235.563293,376.662170 234.248260,373.467590 231.629303,373.935852 
	C227.095001,374.746521 222.176559,375.719055 218.484940,378.205750 
	C215.499741,380.216614 215.489258,385.138702 214.897095,388.800018 
	C214.061966,393.963654 211.576019,395.970337 206.626755,395.711914 
	C205.310364,395.643158 203.978073,395.983887 202.649796,396.021759 
	C187.046906,396.466400 186.957809,396.485474 182.808929,381.631256 
	C181.932083,378.491882 180.547714,376.558594 177.232651,376.278961 
	C176.903885,376.251190 176.547134,376.204041 176.262665,376.053680 
	C169.243362,372.344391 164.407684,375.069763 159.708786,380.722961 
	C154.329346,387.194916 153.926620,386.975311 146.441452,382.817230 
	C142.368576,380.554718 138.479645,377.961975 134.496796,375.536163 
	C132.221939,374.150635 131.848160,372.381165 132.127716,369.652954 
	C133.321625,358.001556 139.445602,349.323151 147.800903,341.758484 
	C151.125000,338.748932 153.685806,334.029144 157.511398,332.670166 
	C161.853210,331.127808 165.034073,336.489136 168.821335,338.638947 
	C201.142075,356.985229 244.589951,341.969482 259.649475,307.235809 
	C263.146515,299.170135 264.906097,290.778961 265.576996,282.098328 
	C265.721558,280.228149 265.945679,278.506439 267.323059,277.052765 
	C275.115021,268.829193 282.863800,260.564758 290.653687,252.339249 
	C291.080627,251.888443 291.744263,251.661819 292.204651,251.386505 
	C294.274323,252.207016 294.605560,254.080368 294.760101,255.573135 
	C295.390381,261.661469 299.289215,263.621277 304.660065,264.917297 
	C314.300659,267.243652 314.346680,267.633972 314.378601,277.430054 
	C314.391083,281.261749 314.230530,285.094696 314.279541,288.925385 
	C314.324921,292.469971 312.663422,294.378357 309.274414,295.346375 
	C305.287781,296.485077 301.089691,296.930847 297.068176,299.128296 
z"/>
<path fill="#000000" opacity="1.000000" stroke="none" 
	d="
M857.279968,193.768250 
	C858.945190,193.751709 860.625854,193.874634 862.272522,193.691299 
	C866.455627,193.225571 868.640869,194.680023 868.217834,199.204330 
	C867.953613,202.030151 869.615784,202.926727 872.231689,202.974518 
	C875.381653,203.032059 878.546448,203.209641 881.668457,203.614822 
	C885.047363,204.053345 887.381409,203.094620 889.875732,200.502762 
	C900.320679,189.649155 918.052368,193.460129 923.371765,207.552017 
	C924.338562,210.113159 925.495972,211.405838 928.399292,212.095886 
	C937.373413,214.228851 942.401306,222.108170 941.278137,231.316727 
	C940.319641,239.174103 933.251343,245.074539 924.266541,245.120041 
	C905.610657,245.214523 886.953430,245.200012 868.297607,245.090866 
	C859.918152,245.041855 854.234558,240.274078 853.110535,232.790100 
	C852.161865,226.474594 856.232788,220.598709 863.761292,217.992142 
	C865.927673,217.242096 867.098511,216.203705 866.381409,214.113571 
	C865.381653,211.199158 867.944031,207.063095 863.613037,205.353653 
	C861.670288,204.586868 858.848572,205.939774 857.540222,203.902405 
	C855.857544,201.282120 856.952393,198.057571 856.896301,194.543396 
	C857.040894,193.985718 857.279968,193.768250 857.279968,193.768250 
M889.773987,224.956665 
	C890.512512,217.009399 890.073486,216.666382 880.241394,217.508133 
	C880.538940,227.601562 881.566040,228.521713 889.773987,224.956665 
z"/>
<path fill="#000000" opacity="1.000000" stroke="none" 
	d="
M524.309937,304.351318 
	C524.304932,309.300262 524.161316,313.805023 524.348938,318.295898 
	C524.482117,321.484650 523.251831,322.974152 520.073181,322.897919 
	C518.908142,322.869965 517.740967,322.945984 516.574951,322.938934 
	C510.164368,322.900116 509.733673,322.503143 509.726379,316.194336 
	C509.704437,297.199280 509.657288,278.203949 509.767334,259.209564 
	C509.781525,256.761139 508.264496,253.030106 511.520721,252.150146 
	C515.200867,251.155624 519.493774,250.421982 523.070679,252.829224 
	C524.531250,253.812149 525.350098,254.743484 527.351807,253.893661 
	C547.757507,245.230438 564.876221,257.551971 563.429321,279.771118 
	C562.528687,293.601440 554.157410,303.011780 541.970886,303.829651 
	C535.885193,304.238007 530.660522,301.678253 525.739746,298.649933 
	C523.652710,300.206390 524.588745,302.199646 524.309937,304.351318 
M545.007812,267.518219 
	C539.184937,262.725281 534.190552,262.155975 529.203308,265.716705 
	C524.490417,269.081543 522.744202,276.313263 525.175598,282.396484 
	C527.484985,288.174347 532.989258,291.649414 538.410095,290.751862 
	C543.784729,289.861969 548.176636,284.724731 548.646362,278.797729 
	C548.961548,274.820038 547.909058,271.250946 545.007812,267.518219 
z"/>
<path fill="#000000" opacity="1.000000" stroke="none" 
	d="
M448.719971,303.998962 
	C448.720123,288.667450 448.674286,273.835266 448.778229,259.004120 
	C448.794647,256.661011 447.493927,253.237259 450.312195,252.243912 
	C453.820190,251.007446 458.143646,250.424118 461.348236,252.752487 
	C463.691772,254.455185 465.089264,254.477158 467.479370,253.278336 
	C483.054596,245.466278 500.784027,255.586899 502.258362,273.101044 
	C502.707123,278.432098 502.399689,283.698334 500.488037,288.852570 
	C495.394073,302.586792 480.291779,307.928406 467.747681,300.302460 
	C466.789124,299.719757 466.023865,298.644928 464.471375,299.007019 
	C462.458221,301.553070 463.610352,304.665192 463.371643,307.543854 
	C463.193176,309.695648 463.333801,311.873840 463.330811,314.040283 
	C463.318909,322.667297 459.785736,325.157318 451.370728,322.687714 
	C449.020721,321.998047 448.799561,320.414642 448.790558,318.497009 
	C448.768616,313.830872 448.745880,309.164764 448.719971,303.998962 
M485.652466,285.014923 
	C489.505798,277.295776 487.970459,269.240631 481.923706,265.451691 
	C476.443604,262.017822 469.245361,263.425385 465.536346,268.656097 
	C461.459076,274.406158 462.950012,283.296234 468.770294,287.939056 
	C474.516174,292.522522 479.641052,291.806976 485.652466,285.014923 
z"/>
<path fill="#000000" opacity="1.000000" stroke="none" 
	d="
M851.296387,251.817017 
	C866.479858,247.894547 875.584839,254.526550 876.064880,269.765656 
	C876.358215,279.078278 876.051758,288.408386 876.211121,297.727295 
	C876.276306,301.541016 874.823181,303.337280 870.958191,303.112610 
	C869.298889,303.016205 867.627869,303.030090 865.965881,303.092682 
	C862.779968,303.212616 861.539856,301.754456 861.601685,298.560791 
	C861.733704,291.738892 861.648254,284.911987 861.591919,278.087646 
	C861.575439,276.098877 861.498413,274.089996 861.198242,272.128723 
	C860.653198,268.567139 859.712830,265.113037 855.453064,264.321594 
	C851.085632,263.510132 847.633545,265.146851 845.037170,268.690521 
	C842.973816,271.506775 842.401428,274.757812 842.370667,278.136078 
	C842.309937,284.793915 842.153015,291.456177 842.330750,298.108734 
	C842.427612,301.732910 841.159485,303.464996 837.464600,303.185883 
	C836.802551,303.135895 836.133484,303.178192 835.467651,303.179749 
	C827.664429,303.198029 827.676453,303.198120 827.678589,295.595459 
	C827.684021,276.619354 827.794067,257.641968 827.589844,238.668045 
	C827.541687,234.190643 828.766479,232.045837 833.469543,232.669464 
	C834.778625,232.843048 836.140442,232.813629 837.459045,232.684143 
	C841.251587,232.311722 842.457214,234.186859 842.333740,237.712265 
	C842.188171,241.867966 842.294800,246.033875 842.348938,250.194611 
	C842.372314,251.995987 842.094849,253.887268 843.625366,255.709335 
	C846.014099,254.479431 848.464294,253.217896 851.296387,251.817017 
z"/>
<path fill="#000000" opacity="1.000000" stroke="none" 
	d="
M741.088135,282.234558 
	C738.607239,282.257568 736.609314,282.234955 734.615417,282.313049 
	C732.938538,282.378693 731.107605,282.474396 730.445740,284.372375 
	C729.732178,286.418732 731.054199,287.841766 732.432678,289.115753 
	C737.338806,293.650116 743.834778,294.209991 748.649963,289.565735 
	C752.217773,286.124664 755.665405,286.529449 759.615112,287.678009 
	C764.819458,289.191406 765.258606,290.620117 761.821411,294.804260 
	C755.023376,303.079742 741.343689,306.126312 729.712463,301.955261 
	C719.263306,298.208099 712.797668,288.784088 712.814514,277.325684 
	C712.831482,265.814362 719.649841,255.335358 730.565430,252.145050 
	C749.317566,246.664352 766.473511,255.258469 767.251282,276.919250 
	C767.388794,280.748077 765.942810,282.360321 762.034485,282.264130 
	C755.217773,282.096252 748.393799,282.226990 741.088135,282.234558 
M734.204407,271.651733 
	C739.568237,271.515717 745.004944,272.317902 750.481323,271.043549 
	C749.922485,265.727417 747.023682,263.237274 742.790588,262.473145 
	C738.309570,261.664215 734.090637,262.644745 731.224487,266.561035 
	C729.319458,269.164001 730.373230,270.879059 734.204407,271.651733 
z"/>
<path fill="#000000" opacity="1.000000" stroke="none" 
	d="
M568.769348,284.803589 
	C566.186768,273.411011 568.443970,263.666687 577.358459,256.475494 
	C586.532532,249.074844 597.032349,248.892288 607.551270,253.299698 
	C618.728394,257.982910 624.329041,271.232605 621.193665,284.486694 
	C618.345947,296.524628 607.604980,304.175110 594.867737,303.746094 
	C581.965393,303.311554 572.976318,297.778198 568.769348,284.803589 
M603.891174,267.701447 
	C600.038147,263.867188 595.609253,262.037384 590.349670,264.431763 
	C584.858337,266.931641 582.823853,271.887146 582.551758,277.432251 
	C582.239075,283.806915 586.878357,289.623444 592.508545,290.755829 
	C598.157104,291.891876 604.116333,288.771576 606.081970,283.071686 
	C607.825134,278.016998 607.597046,272.906525 603.891174,267.701447 
z"/>
<path fill="#000000" opacity="1.000000" stroke="none" 
	d="
M417.398132,289.612396 
	C422.121918,286.979248 423.825836,283.191254 423.716003,278.226532 
	C423.553894,270.899261 423.747253,263.564697 423.639496,256.235443 
	C423.594879,253.203537 424.486908,251.746918 427.846710,251.587372 
	C438.309143,251.090515 438.303101,250.969070 438.296661,261.428619 
	C438.292999,267.426575 438.175293,273.427460 438.325806,279.421539 
	C438.435089,283.774536 437.825775,287.984406 440.667633,292.293091 
	C442.365143,294.866821 443.230133,300.376617 439.590820,302.697327 
	C436.712982,304.532501 431.572968,304.671051 429.305634,301.723511 
	C425.319489,296.541534 422.354218,299.109650 418.185394,301.066162 
	C405.160889,307.178833 389.650696,302.803741 389.670959,283.608002 
	C389.680298,274.777710 389.799835,265.943420 389.568176,257.118835 
	C389.462585,253.097641 390.664612,251.468887 394.918274,251.590652 
	C405.536743,251.894638 404.195282,250.770828 404.285828,261.030731 
	C404.344604,267.694611 404.135406,274.366028 404.379364,281.021851 
	C404.677948,289.166718 409.256165,292.206512 417.398132,289.612396 
z"/>
<path fill="#000000" opacity="1.000000" stroke="none" 
	d="
M682.074097,290.961914 
	C682.052307,278.658661 682.047546,266.849670 681.998169,255.040878 
	C681.966675,247.513092 681.772095,247.361176 674.026917,247.393204 
	C671.199585,247.404907 668.360535,247.214020 665.547363,247.410385 
	C660.666687,247.751068 660.744568,244.588058 660.856323,241.229355 
	C660.966492,237.915085 660.311279,234.438370 665.654907,234.544037 
	C677.293396,234.774216 688.939209,234.639374 700.582031,234.650864 
	C704.074890,234.654312 707.569092,234.711365 711.060242,234.633667 
	C718.460083,234.469009 720.886414,237.802628 718.874146,245.238571 
	C718.296326,247.373703 716.932922,247.617371 715.125122,247.570953 
	C710.969604,247.464279 706.806091,247.548965 702.657288,247.334457 
	C699.031738,247.146988 697.661316,248.502121 697.715393,252.259445 
	C697.923645,266.718964 697.917603,281.182526 697.856506,295.644012 
	C697.845947,298.149689 698.936279,301.830719 695.810913,302.699341 
	C691.906372,303.784546 687.569092,303.881775 683.560791,302.448486 
	C682.208618,301.964996 682.184814,300.270172 682.147278,298.938812 
	C682.076904,296.445892 682.092468,293.950562 682.074097,290.961914 
z"/>
<path fill="#000000" opacity="1.000000" stroke="none" 
	d="
M928.520386,258.464569 
	C925.217712,263.089325 922.272583,267.539520 918.942444,271.680115 
	C916.096252,275.219116 916.010193,278.103668 918.906616,281.811798 
	C923.784485,288.056824 928.121216,294.724579 932.822632,301.409515 
	C929.097168,304.255127 925.330078,302.687012 921.885986,303.176636 
	C917.239075,303.837189 915.650330,300.253082 913.539856,297.303406 
	C911.437622,294.365265 909.218872,291.510559 906.994263,288.543396 
	C903.421753,290.438568 902.039551,293.582703 900.252869,296.271210 
	C895.440491,303.512817 889.894165,305.283630 881.285828,301.978363 
	C880.603455,299.884064 882.215881,298.629608 883.204163,297.204681 
	C886.900269,291.875610 890.424561,286.400208 894.487671,281.362305 
	C897.281250,277.898499 896.699402,275.334595 894.248291,272.139160 
	C890.506348,267.260925 887.106201,262.119415 883.594482,257.066376 
	C882.674072,255.741898 881.447449,254.509354 881.607849,252.718338 
	C895.331299,247.042450 900.495850,257.158539 906.388672,267.011139 
	C909.139648,262.968506 911.594360,259.856781 913.497314,256.437958 
	C915.821045,252.263306 918.855957,250.318344 923.681152,251.459000 
	C926.200928,252.054688 928.970337,251.011017 931.472839,252.433182 
	C931.680176,254.959824 929.598450,256.274536 928.520386,258.464569 
z"/>
<path fill="#000000" opacity="1.000000" stroke="none" 
	d="
M789.096741,251.648163 
	C800.169434,249.550598 810.147217,250.191650 817.948547,259.031769 
	C819.236755,260.491516 820.889526,261.805573 820.674255,264.342834 
	C817.411987,266.557404 813.478821,267.400543 809.800903,268.802399 
	C807.925049,269.517365 806.769470,268.005768 805.481689,266.950165 
	C800.705444,263.034943 796.447998,262.576813 791.730896,265.385834 
	C787.250671,268.053802 784.903687,274.279724 786.107605,280.303009 
	C787.204346,285.790558 791.348267,290.059937 796.156677,290.766174 
	C799.734314,291.291656 802.640259,290.053680 805.310791,287.760681 
	C808.015625,285.438324 818.191040,286.283966 820.389832,288.957642 
	C821.984863,290.897186 820.431091,292.458618 819.419067,293.841309 
	C814.020386,301.217255 806.278625,303.710449 797.577881,303.784760 
	C783.779724,303.902649 772.977173,295.415222 770.826111,282.974670 
	C768.320068,268.480438 775.096191,256.633392 789.096741,251.648163 
z"/>
<path fill="#000000" opacity="1.000000" stroke="none" 
	d="
M381.015564,279.257019 
	C386.144653,288.953125 382.595428,299.083527 372.542999,302.045105 
	C362.104767,305.120331 351.866455,303.898865 342.365479,297.946381 
	C337.969269,295.192078 340.236969,292.563812 341.769653,289.582550 
	C343.450500,286.313080 345.416351,285.807861 348.494598,287.924133 
	C352.378174,290.594025 356.753235,292.281921 361.495789,292.606995 
	C364.602234,292.819916 367.930450,292.420166 368.534302,288.656921 
	C369.093262,285.173462 365.840271,284.424164 363.384583,283.603149 
	C359.290527,282.234375 355.016602,281.377930 350.976898,279.878754 
	C345.630310,277.894501 341.945648,274.326752 341.677246,268.158569 
	C341.389038,261.535095 343.914825,256.363678 349.924316,253.434387 
	C359.889038,248.577103 369.716949,250.062866 379.115448,255.094925 
	C384.454193,257.953339 379.764404,260.948395 378.680267,263.752655 
	C377.542572,266.695435 375.780792,267.327271 372.933044,265.285980 
	C369.525146,262.843109 365.633423,261.113373 361.299866,261.542358 
	C358.794342,261.790405 356.020691,262.736359 355.770111,265.688232 
	C355.557526,268.192291 357.976990,269.218964 360.051178,269.904510 
	C363.205322,270.947021 366.442200,271.736572 369.611389,272.736786 
	C373.749664,274.042847 377.856232,275.449524 381.015564,279.257019 
z"/>
<path fill="#000000" opacity="1.000000" stroke="none" 
	d="
M651.425293,251.961212 
	C652.937256,251.551239 654.054749,251.200394 655.198120,250.991089 
	C660.057190,250.101608 661.169250,250.984436 661.214478,255.986359 
	C661.297546,265.174194 661.024170,264.309326 653.997009,265.299316 
	C647.436707,266.223480 644.109741,270.287170 644.040894,276.904785 
	C643.968140,283.897125 643.961243,290.893036 644.107422,297.883606 
	C644.184448,301.565796 643.095642,303.287720 638.975464,303.233887 
	C628.969543,303.103241 628.954224,303.285492 628.931519,293.203461 
	C628.905640,281.714569 628.819885,270.224579 628.962219,258.737549 
	C628.993225,256.232513 627.436157,252.756622 631.650085,251.746201 
	C637.786377,250.274811 641.455322,251.626343 643.469421,256.274109 
	C646.567505,255.974747 648.138550,252.724594 651.425293,251.961212 
z"/>
<path fill="#000000" opacity="1.000000" stroke="none" 
	d="
M536.646118,343.316101 
	C533.794922,344.042267 533.545776,340.803253 530.902100,340.439941 
	C528.734497,343.933624 528.592712,347.388123 531.182922,351.547729 
	C535.554932,346.651337 542.070618,345.779755 546.728088,341.689240 
	C544.597900,339.274261 543.470581,341.014923 542.215820,341.899597 
	C541.287292,342.554260 540.294250,342.636841 539.524170,341.782928 
	C538.748901,340.923187 539.058105,339.874786 539.611450,339.011414 
	C541.121338,336.655457 543.382874,335.739655 546.058594,336.227997 
	C548.899414,336.746460 550.267029,338.638367 550.326050,341.538239 
	C550.409241,345.628296 549.684326,349.824463 552.881470,354.735840 
	C547.045532,353.609955 541.603455,358.277863 537.844604,350.810638 
	C536.044250,354.442352 533.651062,355.964264 530.287354,355.177460 
	C526.068054,354.190552 525.650696,350.424988 524.527893,346.487518 
	C523.248169,351.128387 522.210571,355.635437 516.594299,355.253418 
	C512.779053,354.993896 510.722382,352.522064 510.107849,348.800537 
	C509.185211,343.212830 510.981171,338.015503 514.499390,336.507080 
	C519.431580,334.392365 521.811829,337.876862 524.404236,341.353027 
	C527.133179,338.342621 529.508667,334.166870 534.492065,336.765320 
	C536.952820,338.048370 538.843384,340.010925 536.646118,343.316101 
M514.339355,347.920441 
	C514.545227,349.702057 515.210876,351.388000 517.239319,351.211731 
	C519.243103,351.037598 519.723206,349.187164 519.639404,347.467834 
	C519.518738,344.992889 520.806030,341.043610 517.467346,340.761017 
	C513.388672,340.415802 514.756165,344.647552 514.339355,347.920441 
z"/>
<path fill="#000000" opacity="1.000000" stroke="none" 
	d="
M782.126892,344.877502 
	C781.127502,342.812134 780.492859,343.940948 780.209778,344.890961 
	C779.499023,347.276001 778.924194,349.704865 778.381592,352.135559 
	C778.072876,353.518341 777.683594,354.772217 776.019775,354.896729 
	C774.107849,355.039795 773.348328,353.686584 773.004822,352.165192 
	C771.649292,346.161133 770.370422,340.139587 769.091797,334.118469 
	C768.841980,332.942230 768.739258,331.650269 770.243225,331.252045 
	C771.961304,330.797119 772.678040,332.045471 773.007629,333.398010 
	C773.790100,336.609161 774.450684,339.850037 775.490417,344.579407 
	C776.770996,339.985962 777.673096,336.860504 778.504272,333.716309 
	C778.860046,332.370850 779.214172,331.113464 780.902954,330.974548 
	C782.825684,330.816467 783.558044,332.132355 784.000122,333.627014 
	C784.841003,336.470123 785.576172,339.344574 786.602661,343.114838 
	C787.698730,339.438507 788.547546,336.611176 789.383179,333.779999 
	C789.814880,332.317657 790.190430,330.610168 792.220642,331.073151 
	C794.046509,331.489441 793.483459,333.128601 793.394226,334.405304 
	C792.949036,340.774994 790.181702,346.619812 789.196533,352.871643 
	C788.994995,354.150787 788.180237,354.991943 786.787903,354.916840 
	C785.239868,354.833405 784.392029,353.786591 784.016235,352.428009 
	C783.351257,350.023834 782.809509,347.585510 782.126892,344.877502 
z"/>
<path fill="#000000" opacity="1.000000" stroke="none" 
	d="
M889.463989,340.645142 
	C888.291016,344.750061 886.784241,348.691223 891.196289,352.301239 
	C892.877991,348.148682 892.576233,344.561707 892.352051,340.953766 
	C892.252502,339.351959 891.997559,337.176788 894.274170,337.011536 
	C896.790039,336.828949 896.446899,339.092377 896.380554,340.655914 
	C896.185425,345.252411 896.978638,349.919800 895.807251,354.265472 
	C895.331726,354.505341 895.187195,354.636169 895.033936,354.647400 
	C884.234680,355.436737 884.468689,355.785553 884.580261,345.047668 
	C884.596497,343.488678 885.062988,341.632996 882.725220,340.515625 
	C880.128723,343.076843 881.212219,346.426849 881.490051,349.212891 
	C882.027527,354.602570 878.861816,355.042542 874.935120,355.247467 
	C870.879822,355.459045 869.075195,353.381378 868.928040,349.628357 
	C868.797729,346.305573 868.859070,342.973053 868.916199,339.646210 
	C868.936829,338.441223 869.309143,337.202240 870.765259,337.104279 
	C872.554749,336.983826 872.873413,338.386688 873.044434,339.766815 
	C873.515503,343.567047 871.959229,347.650604 874.469849,351.543121 
	C878.333252,349.491302 877.619690,346.099548 877.518738,343.182465 
	C877.398621,339.711456 876.750610,336.382660 881.909912,336.246307 
	C884.336548,336.182190 884.149170,332.603821 887.090942,331.907928 
	C887.177307,335.075165 893.071838,335.919739 889.463989,340.645142 
z"/>
<path fill="#000000" opacity="1.000000" stroke="none" 
	d="
M622.184570,342.497498 
	C622.563416,343.790527 622.845520,344.743622 623.331177,346.384399 
	C623.832092,344.823395 624.503174,343.810669 624.397766,342.886444 
	C623.690674,336.682495 631.097900,336.863586 632.625488,332.365143 
	C632.869934,331.645294 634.781616,332.075836 635.023010,333.124481 
	C635.549622,335.412292 639.602173,336.682037 637.426208,339.519501 
	C633.657288,344.434174 634.585022,348.879852 637.898315,353.395935 
	C634.578918,355.995758 632.202026,355.137360 631.665466,351.085663 
	C631.215515,347.687683 632.210876,344.137146 630.718628,340.582764 
	C628.123962,341.165497 628.476807,343.323547 628.009583,344.893982 
	C627.345337,347.127106 626.826721,349.403168 626.200317,351.648163 
	C625.798340,353.088867 625.460144,354.805878 623.601074,354.877869 
	C621.720581,354.950653 621.268738,353.287415 620.846375,351.832916 
	C620.346741,350.112427 619.906616,348.374603 619.129150,345.487061 
	C618.329956,348.607971 617.799316,350.615784 617.305481,352.632568 
	C617.006104,353.855408 616.492126,354.884308 615.048035,354.839783 
	C613.671509,354.797363 613.071777,353.837036 612.734863,352.611572 
	C611.587219,348.436829 610.373291,344.279907 609.266907,340.094421 
	C608.912781,338.754669 608.870728,337.251251 610.708008,336.980225 
	C612.379211,336.733643 613.086243,337.915985 613.246826,339.396637 
	C613.444824,341.223419 614.012451,342.867798 615.020142,344.414612 
	C617.678162,342.393555 615.230896,337.443909 619.243408,337.103180 
	C622.262695,336.846802 620.885376,340.555145 622.184570,342.497498 
z"/>
<path fill="#000000" opacity="1.000000" stroke="none" 
	d="
M708.927124,355.280212 
	C699.418579,354.091888 702.553650,346.501434 701.319336,341.146454 
	C697.945312,340.025635 696.516296,341.508423 696.350037,344.606476 
	C696.216553,347.094025 696.310913,349.593079 696.229980,352.084595 
	C696.190857,353.288116 695.889221,354.516602 694.405396,354.627777 
	C692.891052,354.741241 692.348999,353.547882 692.318665,352.353485 
	C692.209351,348.038269 692.032959,343.707397 692.289307,339.406738 
	C692.442322,336.839691 697.754883,334.916534 700.912292,336.653381 
	C702.738281,337.657806 703.719238,337.288788 705.296204,336.649445 
	C709.478149,334.954010 712.825623,336.557953 714.434692,340.763000 
	C716.796143,346.934509 714.566101,353.286407 708.927124,355.280212 
M706.313477,342.033356 
	C706.084961,342.657227 705.777832,343.264465 705.641724,343.907898 
	C705.105225,346.443970 705.136902,348.895996 707.148010,350.870697 
	C707.788574,351.499695 708.717529,351.714508 709.415039,351.115479 
	C711.631714,349.211639 711.131165,346.562653 710.955017,344.139648 
	C710.769287,341.585327 710.069763,339.254486 706.313477,342.033356 
z"/>
<path fill="#000000" opacity="1.000000" stroke="none" 
	d="
M743.166992,336.614136 
	C744.023010,337.326294 744.904358,337.933685 744.933228,338.579254 
	C745.192322,344.370056 745.571228,350.209564 744.529846,355.930756 
	C743.714783,360.408539 738.538513,362.414734 734.869751,360.026733 
	C733.880432,359.382782 732.459595,358.318176 732.823853,357.430084 
	C734.368591,353.663422 731.741211,350.567871 731.550415,347.104034 
	C731.052673,338.066345 733.888367,335.307434 743.166992,336.614136 
M736.731140,341.419495 
	C734.919434,345.067535 734.629395,348.477692 738.127808,351.570374 
	C741.915894,349.115662 740.820068,345.641571 740.494873,342.537659 
	C740.323486,340.902802 739.067810,339.947876 736.731140,341.419495 
z"/>
<path fill="#000000" opacity="1.000000" stroke="none" 
	d="
M368.991150,340.590027 
	C365.823822,343.026978 367.340057,346.248535 366.946838,349.092621 
	C366.670776,351.089447 367.730804,354.361938 364.936249,354.472748 
	C361.736389,354.599670 363.075104,351.266144 362.885712,349.350586 
	C362.673492,347.204987 362.835083,345.024719 362.765533,342.861725 
	C362.732269,341.827362 362.410736,340.805115 361.235626,340.578369 
	C359.739624,340.289673 358.955414,341.417114 358.831696,342.552795 
	C358.508759,345.517059 358.480774,348.512695 358.302917,351.493896 
	C358.225433,352.792755 358.408813,354.487579 356.603790,354.605621 
	C354.325226,354.754608 354.650421,352.847198 354.589722,351.394104 
	C354.464783,348.403961 354.443085,345.407501 354.240173,342.423096 
	C353.931793,337.886902 356.351624,336.021362 360.484039,336.284302 
	C363.720215,336.490173 366.849396,337.334229 370.172394,336.340363 
	C371.780243,335.859497 373.603302,337.055054 374.158203,338.742981 
	C375.895081,344.026276 375.609528,349.309570 374.028259,354.865875 
	C370.065735,353.435669 371.412842,350.690643 371.320709,348.422424 
	C371.208618,345.661621 373.141449,342.365234 368.991150,340.590027 
z"/>
<path fill="#000000" opacity="1.000000" stroke="none" 
	d="
M484.792908,337.216583 
	C486.864716,343.526611 486.515106,349.692230 485.454071,355.727478 
	C484.665771,360.211395 479.793610,362.192627 476.181946,360.072296 
	C475.155701,359.469757 473.648590,358.372375 474.021515,357.573669 
	C475.750854,353.869354 472.964142,350.962952 472.657715,347.654205 
	C471.793335,338.321625 474.676300,335.645325 484.792908,337.216583 
M476.481903,344.852722 
	C476.384979,347.532684 476.462402,350.129547 479.433990,351.437286 
	C482.013641,349.879608 481.700897,347.425629 481.730072,345.180389 
	C481.752777,343.434082 482.161682,341.121185 479.856995,340.607025 
	C477.301361,340.036835 477.283264,342.534149 476.481903,344.852722 
z"/>
<path fill="#000000" opacity="1.000000" stroke="none" 
	d="
M575.067871,351.538452 
	C580.078918,348.779388 579.908691,347.756653 573.895447,343.744415 
	C575.727966,340.776947 578.581665,341.012604 581.215393,341.630127 
	C583.885681,342.256226 583.205322,344.739899 583.104431,346.640381 
	C582.592407,356.279236 583.638611,353.864716 575.455383,355.226135 
	C570.871399,355.988770 568.028870,353.047211 567.088989,347.372742 
	C566.430664,343.398132 566.504395,339.395935 567.851624,335.553650 
	C569.023865,332.210358 571.455566,330.596924 575.085510,330.590454 
	C578.229919,330.584839 580.640076,331.639740 581.890198,334.594635 
	C582.456970,335.934265 583.077454,337.675323 581.386658,338.596344 
	C579.792480,339.464844 579.083130,338.063171 578.481201,336.797180 
	C577.697388,335.148407 576.445312,334.106171 574.521606,334.516083 
	C572.650513,334.914764 571.932434,336.457184 571.480042,338.112335 
	C570.046082,343.359283 571.464539,349.185272 575.067871,351.538452 
z"/>
<path fill="#000000" opacity="1.000000" stroke="none" 
	d="
M420.910370,344.109436 
	C421.595978,342.985443 422.085266,341.933899 422.467834,340.844879 
	C423.033325,339.235016 422.836761,336.489349 425.415771,337.221344 
	C427.851959,337.912842 426.531189,340.386047 426.196747,341.995087 
	C425.488159,345.403961 424.458557,348.746826 423.537415,352.110382 
	C423.177246,353.425598 422.713226,354.762482 421.022003,354.727539 
	C419.367371,354.693359 418.907074,353.477325 418.597412,352.066193 
	C418.145203,350.005646 417.546356,347.977264 416.955597,345.727875 
	C414.911682,348.726593 416.836334,354.400391 412.495605,354.304962 
	C409.025146,354.228668 409.560394,349.019409 408.487518,346.030731 
	C407.761414,344.007996 407.306885,341.875763 406.879944,339.762421 
	C406.648560,338.616974 406.663239,337.306702 408.239502,337.042023 
	C409.401642,336.846863 410.085327,337.622406 410.441559,338.639374 
	C411.092072,340.496521 411.695007,342.370361 412.367310,344.385712 
	C413.980347,342.982910 413.687012,341.139740 414.267853,339.633484 
	C414.745728,338.394287 414.940887,336.934967 416.694153,336.931854 
	C418.648895,336.928345 419.037628,338.359558 419.381989,339.916046 
	C419.700684,341.356598 420.229858,342.750610 420.910370,344.109436 
z"/>
<path fill="#000000" opacity="1.000000" stroke="none" 
	d="
M794.664551,350.923615 
	C793.425842,347.100769 793.206543,343.641541 794.529114,340.254181 
	C795.589233,337.538971 797.667847,335.906708 800.657654,335.987488 
	C803.584961,336.066589 805.073608,338.071136 805.815674,340.647308 
	C806.803284,344.076141 806.408020,347.592407 805.888489,351.011200 
	C805.551331,353.229248 804.075623,354.931122 801.560852,355.234985 
	C798.328857,355.625549 796.106323,354.256104 794.664551,350.923615 
z"/>
<path fill="#000000" opacity="1.000000" stroke="none" 
	d="
M845.308838,348.004944 
	C844.985291,352.168579 843.259277,354.718567 839.317078,355.248077 
	C835.927979,355.703278 832.939880,354.903961 831.174683,351.736176 
	C830.299316,350.165192 829.400513,347.952454 831.340027,346.802460 
	C833.545288,345.494904 833.901550,347.824188 834.579468,349.294098 
	C835.353394,350.972229 836.720642,351.817566 838.616699,351.501678 
	C840.121033,351.251068 840.900330,350.166321 841.220459,348.799774 
	C841.713501,346.694794 840.178162,345.809052 838.675171,345.045532 
	C836.903870,344.145721 834.974854,343.528503 833.280457,342.511749 
	C830.590820,340.897797 830.280396,338.246918 830.910828,335.481415 
	C831.518311,332.816742 833.183838,331.004700 836.008606,330.724762 
	C838.673767,330.460693 841.431335,330.296112 843.207825,332.952881 
	C844.165405,334.385040 845.003174,336.211670 843.555359,337.501038 
	C841.799072,339.065216 841.104187,337.180847 840.367737,335.881714 
	C839.617065,334.557526 838.397217,334.106781 836.960388,334.519928 
	C835.727417,334.874481 834.999329,335.797363 834.944153,337.084045 
	C834.876831,338.653290 836.003479,339.481842 837.204468,340.088806 
	C840.633423,341.821777 845.264526,342.213867 845.308838,348.004944 
z"/>
<path fill="#000000" opacity="1.000000" stroke="none" 
	d="
M385.103607,355.298401 
	C382.809113,355.327759 382.179321,356.524200 381.917603,358.181091 
	C381.730194,359.367401 381.326050,360.538208 379.780396,360.423004 
	C378.303497,360.312927 377.865692,359.175385 377.856781,357.954742 
	C377.811859,351.807343 377.609711,345.647980 377.923798,339.516418 
	C378.087402,336.322906 384.846069,334.933319 387.873047,337.272095 
	C393.314667,341.476562 391.871338,352.378387 385.103607,355.298401 
M385.193909,351.179443 
	C387.734924,348.699615 386.727814,345.611053 386.594360,342.698181 
	C386.545685,341.635773 385.849121,340.834564 384.764984,340.585083 
	C383.586975,340.314056 382.775055,341.007690 382.436401,341.989990 
	C381.216919,345.527252 380.235748,349.074097 385.193909,351.179443 
z"/>
<path fill="#000000" opacity="1.000000" stroke="none" 
	d="
M638.949829,339.936584 
	C638.957825,337.983459 638.902954,336.481628 639.051758,335.000275 
	C639.208923,333.435455 638.732544,331.293030 640.885986,330.862396 
	C643.415100,330.356567 643.155212,332.572418 643.469055,334.134796 
	C643.754150,335.554199 644.883240,335.841217 646.102600,335.920044 
	C650.620361,336.212006 651.899780,339.172913 651.937622,343.077728 
	C651.966492,346.063293 651.926514,349.051727 651.818420,352.035339 
	C651.775513,353.219269 651.410767,354.487213 649.959656,354.575195 
	C648.106750,354.687531 647.901184,353.199890 647.855164,351.848206 
	C647.764771,349.195251 647.816467,346.537628 647.742798,343.883820 
	C647.700867,342.373138 647.624573,340.542297 645.594116,340.610291 
	C643.742737,340.672302 643.395081,342.385376 643.349792,343.945923 
	C643.272705,346.599854 643.303406,349.256866 643.227783,351.910858 
	C643.194702,353.072784 643.126709,354.450409 641.601990,354.566010 
	C639.692017,354.710815 639.659668,353.172546 639.584839,351.822449 
	C639.373840,348.014404 639.178223,344.205475 638.949829,339.936584 
z"/>
<path fill="#000000" opacity="1.000000" stroke="none" 
	d="
M676.968201,339.100677 
	C676.946838,337.788544 676.863342,336.949921 676.938232,336.125671 
	C677.108398,334.253082 676.251587,331.526459 678.907471,331.147949 
	C681.992859,330.708221 680.541382,334.196289 682.152588,335.884064 
	C684.212341,336.566895 687.998962,335.371704 688.898560,338.874664 
	C690.144104,343.725067 690.177551,348.747711 689.224548,353.707581 
	C689.046387,354.634918 688.206604,354.997711 687.279480,354.743744 
	C686.117859,354.425568 685.835815,353.432343 685.804199,352.408234 
	C685.716858,349.581055 685.719360,346.751160 685.638794,343.923706 
	C685.595215,342.392242 685.472351,340.593658 683.488892,340.592682 
	C681.557251,340.591705 681.436890,342.353821 681.228333,343.892365 
	C680.738892,347.504028 682.402649,351.464111 679.303894,355.592651 
	C675.190735,350.236603 677.827026,344.616577 676.968201,339.100677 
z"/>
<path fill="#000000" opacity="1.000000" stroke="none" 
	d="
M427.874512,341.616943 
	C428.977936,338.020813 430.938751,335.937531 434.480530,336.173523 
	C437.120331,336.349457 438.539124,338.180573 439.397675,340.534546 
	C441.025391,344.997498 440.086090,346.506897 435.321747,346.995087 
	C434.187927,347.111237 432.979462,346.919098 431.996979,347.858795 
	C431.561066,349.563904 432.141327,350.711060 433.757172,351.291718 
	C435.986725,351.147491 435.792725,348.160858 438.072235,347.954315 
	C440.254150,348.557434 440.027802,350.230194 439.275299,351.816376 
	C438.291168,353.890869 436.616760,355.166626 434.182526,355.258026 
	C431.783051,355.348145 429.949493,354.400818 428.810333,352.315674 
	C427.027679,349.052582 427.685089,345.509888 427.874512,341.616943 
z"/>
<path fill="#000000" opacity="1.000000" stroke="none" 
	d="
M810.504761,354.717651 
	C807.720093,352.361603 808.366821,349.356628 808.269287,346.652191 
	C808.137756,343.007507 808.374023,339.338562 808.651733,335.695221 
	C808.775757,334.069244 807.734924,331.418762 810.390625,331.229767 
	C813.153442,331.033203 811.749512,334.114136 812.759155,335.437378 
	C820.337646,337.449463 822.563354,340.967957 821.206177,348.796051 
	C820.251160,354.304474 818.068909,355.586945 810.504761,354.717651 
M817.605530,346.270660 
	C817.697205,344.596405 817.534607,342.955261 816.513489,341.567780 
	C815.572266,340.288879 814.458374,340.006622 813.269897,341.341187 
	C811.151001,343.720428 812.371216,349.498413 815.391296,351.243011 
	C817.059509,350.326263 817.009521,348.525360 817.605530,346.270660 
z"/>
<path fill="#000000" opacity="1.000000" stroke="none" 
	d="
M344.058319,335.370361 
	C342.603912,339.002014 343.727722,340.638275 347.420013,340.635864 
	C348.953735,340.634857 350.870758,340.170685 351.644867,342.334503 
	C351.117371,344.708496 349.165222,344.235107 347.640381,344.227295 
	C344.844177,344.212982 343.220215,345.062195 343.324554,348.235016 
	C343.429413,351.422821 345.310272,351.626343 347.731079,351.335205 
	C348.550903,351.236572 349.400757,351.207672 350.217621,351.306335 
	C351.459503,351.456329 352.541290,351.963837 352.416626,353.472198 
	C352.316284,354.686951 351.353455,355.131104 350.299561,355.141937 
	C347.640564,355.169373 344.975586,355.184692 342.322418,355.036469 
	C340.164368,354.915955 339.704346,353.302246 339.698792,351.487000 
	C339.681549,345.827728 339.709351,340.168091 339.656372,334.509186 
	C339.633453,332.063538 340.664459,330.565796 343.174866,330.817841 
	C346.118134,331.113342 351.133667,329.127350 351.499451,332.419525 
	C351.941223,336.396210 346.691040,333.807373 344.058319,335.370361 
z"/>
<path fill="#000000" opacity="1.000000" stroke="none" 
	d="
M760.210083,350.636292 
	C760.010742,352.681030 760.262939,354.867889 757.804443,354.546570 
	C755.986206,354.308990 756.028809,352.372681 755.973022,350.896027 
	C755.885132,348.573822 755.953674,346.245941 755.876282,343.923096 
	C755.826050,342.414886 755.736206,340.582367 753.717773,340.641571 
	C751.862549,340.696014 751.516052,342.462585 751.442932,343.979004 
	C751.306946,346.796661 751.340637,349.622131 751.259399,352.443054 
	C751.228271,353.522430 750.773254,354.361206 749.583740,354.588928 
	C747.752319,354.369476 747.711121,352.929657 747.700500,351.620300 
	C747.654663,345.974640 747.634216,340.327789 747.707764,334.682739 
	C747.725769,333.306610 747.280640,331.283936 749.409912,331.127502 
	C751.667542,330.961578 751.133179,333.050842 751.446045,334.399445 
	C751.554199,334.865387 751.811523,335.296722 751.983337,335.702942 
	C759.475037,336.721924 760.156616,337.513275 760.215820,345.207977 
	C760.228638,346.868622 760.217651,348.529449 760.210083,350.636292 
z"/>
<path fill="#000000" opacity="1.000000" stroke="none" 
	d="
M594.980652,340.025909 
	C599.892212,335.391357 603.371277,334.808960 606.403870,338.113708 
	C609.592773,341.588837 609.284668,350.752899 605.878723,353.731171 
	C602.448059,356.731079 597.584167,355.493927 595.715454,351.131500 
	C594.289185,347.801971 594.599976,344.338562 594.991333,340.434692 
	C595.006042,339.994812 594.980652,340.025909 594.980652,340.025909 
M602.905518,350.845306 
	C604.640076,348.295105 604.253906,345.467560 603.745239,342.731018 
	C603.396606,340.855255 602.162476,339.609680 600.218140,341.118866 
	C597.648376,343.113495 599.059570,349.691864 602.905518,350.845306 
z"/>
<path fill="#000000" opacity="1.000000" stroke="none" 
	d="
M911.358398,350.943909 
	C909.866821,354.598022 907.282288,355.769653 904.002502,355.142731 
	C900.655151,354.502930 899.179504,351.937378 898.466492,348.837982 
	C898.429443,348.676819 898.385986,348.513916 898.376587,348.350037 
	C898.133545,344.130585 898.198059,339.927917 902.018555,337.122986 
	C904.016052,335.656494 906.425598,335.534424 908.561157,336.991333 
	C912.394226,339.606262 912.531433,343.598541 912.199646,347.668732 
	C912.120361,348.641205 911.734558,349.588684 911.358398,350.943909 
M907.382385,341.661835 
	C903.920776,340.165070 901.864014,342.381470 902.418701,347.083923 
	C902.635376,348.920624 903.046448,351.049744 905.210938,351.203400 
	C907.699402,351.379974 907.824158,349.101074 907.909180,347.302795 
	C907.986328,345.671661 907.756409,344.025970 907.382385,341.661835 
z"/>
<path fill="#000000" opacity="1.000000" stroke="none" 
	d="
M466.716003,347.090363 
	C466.280457,344.566650 468.076660,340.981842 465.008148,340.764069 
	C461.445862,340.511261 462.574554,344.262390 462.364166,346.523773 
	C462.180450,348.498627 462.284760,350.498627 462.191650,352.484222 
	C462.141418,353.555267 461.632996,354.456573 460.489716,354.608978 
	C459.325256,354.764160 458.526337,354.022614 458.389069,352.950806 
	C457.776642,348.169128 457.527008,343.301941 458.418182,338.601288 
	C459.015137,335.452484 462.436768,336.335571 464.733887,336.021545 
	C467.530396,335.639221 469.616241,336.956757 470.411652,339.741760 
	C471.677124,344.172485 470.918671,348.620850 470.237488,353.046082 
	C470.099243,353.943939 469.519867,354.569580 468.561951,354.548920 
	C467.614807,354.528442 467.003937,353.883331 466.931091,352.997375 
	C466.782074,351.184967 466.776886,349.360687 466.716003,347.090363 
z"/>
<path fill="#000000" opacity="1.000000" stroke="none" 
	d="
M854.659973,336.168396 
	C860.572144,339.524597 862.307068,347.992950 858.451294,352.911133 
	C856.183716,355.803528 851.819885,356.288055 849.249939,353.671112 
	C846.031250,350.393646 845.824829,346.261536 846.868591,342.083435 
	C847.803772,338.340424 850.152527,336.034454 854.659973,336.168396 
M855.799988,348.768188 
	C855.865662,347.944611 856.077881,347.101166 855.969238,346.301270 
	C855.665466,344.063843 856.771301,340.360199 853.120117,340.707947 
	C850.274170,340.978973 850.447449,344.422882 850.507019,346.886566 
	C850.530090,347.838257 850.859070,348.882629 851.350708,349.704010 
	C852.811646,352.144897 854.310364,352.109314 855.799988,348.768188 
z"/>
<path fill="#000000" opacity="1.000000" stroke="none" 
	d="
M398.293213,336.122559 
	C402.924988,336.031464 405.069580,338.674561 405.744171,342.365631 
	C406.496002,346.478973 406.622406,350.840790 403.022919,353.864319 
	C400.489716,355.992188 397.477875,355.970551 394.905853,353.575378 
	C389.710236,348.737000 391.387177,339.192780 398.293213,336.122559 
M396.287506,347.930786 
	C396.606049,349.876282 397.283875,351.709412 399.666138,351.289581 
	C401.415588,350.981262 401.781708,349.233429 401.675079,347.701019 
	C401.493134,345.085876 403.094696,340.901947 399.307892,340.609375 
	C395.248627,340.295746 396.543915,344.546997 396.287506,347.930786 
z"/>
<path fill="#000000" opacity="1.000000" stroke="none" 
	d="
M926.535828,343.630554 
	C926.635681,346.182861 926.894714,348.337616 926.892944,350.492126 
	C926.891663,352.095795 927.055115,354.325470 924.906555,354.486053 
	C922.436646,354.670715 922.878357,352.344421 922.810120,350.788483 
	C922.715332,348.627228 922.877502,346.455078 922.792908,344.292938 
	C922.731323,342.717773 923.137329,340.462677 920.683594,340.556824 
	C918.596558,340.636871 918.366699,342.672150 918.306580,344.369629 
	C918.218262,346.865936 918.269775,349.366852 918.229492,351.865265 
	C918.209656,353.094391 917.915833,354.367493 916.524597,354.551117 
	C914.735168,354.787323 914.235352,353.335052 914.208069,351.966064 
	C914.125061,347.807495 914.065186,343.640350 914.243652,339.487183 
	C914.394531,335.977051 917.520874,336.863678 919.577148,336.340363 
	C922.246033,335.661194 924.574219,336.255188 925.979614,338.860626 
	C926.709839,340.214294 926.879395,341.706635 926.535828,343.630554 
z"/>
<path fill="#000000" opacity="1.000000" stroke="none" 
	d="
M446.017761,348.904541 
	C445.972107,350.340485 445.992676,351.342590 445.865356,352.325470 
	C445.708221,353.538086 445.260681,354.681122 443.789429,354.658051 
	C442.310486,354.634918 441.844208,353.479645 441.834351,352.257233 
	C441.799530,347.945496 441.605194,343.612762 441.953278,339.327118 
	C442.246277,335.719818 445.660431,336.126801 447.797333,336.432983 
	C450.226776,336.781067 452.617859,336.721497 455.685547,336.617554 
	C454.911194,342.828308 456.095001,348.890778 454.308807,355.663879 
	C450.495758,352.380432 452.202637,349.178864 451.636536,346.462189 
	C451.211517,344.422668 453.012360,340.996338 449.703583,340.692749 
	C446.050537,340.357574 446.098938,343.772766 446.017181,346.470734 
	C445.997070,347.133942 446.016907,347.798309 446.017761,348.904541 
z"/>
<path fill="#000000" opacity="1.000000" stroke="none" 
	d="
M721.196655,339.406921 
	C721.268921,342.514984 721.243591,345.181732 721.334351,347.844513 
	C721.383667,349.289917 721.181946,351.273315 723.329346,351.172089 
	C725.124634,351.087494 725.532593,349.352325 725.579712,347.780182 
	C725.659424,345.116547 725.628418,342.449707 725.697144,339.785583 
	C725.732483,338.414062 725.890442,336.933685 727.733643,336.971100 
	C729.315186,337.003235 729.366516,338.338409 729.438660,339.531403 
	C729.619202,342.518311 730.067871,345.517242 729.930908,348.489288 
	C729.639343,354.816071 728.915649,355.329315 722.567871,355.301025 
	C717.871338,355.280090 717.330566,351.893738 717.115051,348.460114 
	C716.927917,345.478790 717.084290,342.471436 717.186401,339.478943 
	C717.220703,338.472321 717.608765,337.396515 718.714172,337.127197 
	C720.128052,336.782684 720.852295,337.663361 721.196655,339.406921 
z"/>
<path fill="#000000" opacity="1.000000" stroke="none" 
	d="
M935.711548,355.181793 
	C931.261780,355.310974 928.749207,353.896851 928.969055,349.558685 
	C931.450806,348.318817 932.005981,350.217499 933.108032,351.039276 
	C934.185425,351.842682 935.366455,351.875854 936.166626,350.723877 
	C937.043945,349.460785 936.282532,348.512573 935.148621,347.897034 
	C933.840820,347.187134 932.329895,346.773224 931.167725,345.888580 
	C928.308350,343.712036 927.688049,340.835358 930.192932,338.163147 
	C932.641174,335.551392 935.738037,335.272675 938.656860,337.689606 
	C939.700439,338.553802 940.580627,339.873718 939.800659,341.202271 
	C938.880859,342.769043 937.601562,342.133331 936.469666,341.168884 
	C935.533813,340.371521 934.514954,339.879181 933.137451,340.931641 
	C932.744080,343.318848 934.860779,343.706543 936.355835,344.384491 
	C938.721558,345.457336 941.074341,346.580383 940.973816,349.583588 
	C940.873352,352.583313 939.051025,354.427979 935.711548,355.181793 
z"/>
<path fill="#000000" opacity="1.000000" stroke="none" 
	d="
M500.215515,338.109314 
	C500.236389,340.587646 500.428680,342.601318 500.239777,344.578522 
	C499.821228,348.958588 500.863251,351.755951 506.085754,351.155731 
	C507.508698,350.992188 509.411865,351.237244 509.248840,353.365204 
	C509.092773,355.402496 507.274475,355.238037 505.781494,355.285461 
	C505.282837,355.301300 504.782959,355.273804 504.283691,355.276611 
	C495.884888,355.323975 495.895813,355.324402 495.914612,346.748413 
	C495.923004,342.920502 495.807678,339.091034 495.887512,335.265167 
	C495.923676,333.531738 495.596466,331.071747 498.261658,331.178375 
	C500.587616,331.271484 499.997070,333.581635 500.173737,335.133423 
	C500.267395,335.955841 500.205597,336.795990 500.215515,338.109314 
z"/>
<path fill="#000000" opacity="1.000000" stroke="none" 
	d="
M673.167358,334.451904 
	C670.195618,334.761871 670.305298,336.744019 670.288940,338.586731 
	C670.250610,342.915070 670.284485,347.244110 670.237427,351.572296 
	C670.220642,353.120636 670.030945,354.819092 667.934143,354.670471 
	C666.220337,354.549042 666.034912,352.988007 666.045654,351.642090 
	C666.066833,348.981995 666.299500,346.322906 666.297668,343.663483 
	C666.294556,339.169220 668.043884,333.658691 660.710999,333.821442 
	C660.331726,331.653503 661.217224,330.922791 662.515930,330.885254 
	C666.173218,330.779541 669.835205,330.788330 673.494507,330.829742 
	C674.500671,330.841095 675.590576,331.149231 675.757812,332.358307 
	C675.982727,333.985260 674.683838,334.172394 673.167358,334.451904 
z"/>
<path fill="#000000" opacity="1.000000" stroke="none" 
	d="
M595.019348,339.979523 
	C591.320007,340.344696 589.911743,342.618378 589.954712,346.111053 
	C589.969055,347.277039 590.025208,348.458160 589.871643,349.606903 
	C589.627380,351.433990 590.546753,354.375153 587.802673,354.443359 
	C584.833374,354.517090 585.921143,351.519958 585.729553,349.738159 
	C585.427368,346.927856 585.241211,344.093994 585.219116,341.268433 
	C585.203613,339.289948 585.195923,336.991943 587.981262,336.743683 
	C590.610718,336.509338 593.863159,334.969116 594.894653,339.674194 
	C594.980652,340.025909 595.006042,339.994812 595.019348,339.979523 
z"/>
<path fill="#000000" opacity="1.000000" stroke="none" 
	d="
M866.254700,351.510986 
	C866.094971,353.350830 865.809937,354.753052 863.989258,354.558685 
	C862.517517,354.401550 862.308228,353.032684 862.248108,351.896759 
	C861.881897,344.972473 861.632263,338.046539 863.108215,331.126068 
	C866.273621,332.312256 866.273621,332.312256 866.254700,351.510986 
z"/>
<path fill="#000000" opacity="1.000000" stroke="none" 
	d="
M876.427551,191.833817 
	C873.369751,191.844101 869.858582,194.049011 868.522400,189.900818 
	C867.847534,187.805496 867.120544,185.021637 869.335632,183.507324 
	C871.400879,182.095383 874.482056,182.001526 876.332764,183.549026 
	C878.895081,185.691498 878.262207,188.819351 876.427551,191.833817 
z"/>
<path fill="#000000" opacity="1.000000" stroke="none" 
	d="
M553.640015,345.100586 
	C553.556274,340.866425 552.715271,337.086456 553.496582,333.277466 
	C553.740417,332.088470 553.928955,330.893890 555.551697,331.108917 
	C556.757996,331.268768 557.175964,332.231171 557.183838,333.261902 
	C557.232910,339.714813 557.252991,346.168365 557.211731,352.621246 
	C557.203491,353.912903 556.493713,354.914368 555.036804,354.717621 
	C553.870056,354.560089 553.507446,353.563995 553.516602,352.492188 
	C553.536316,350.175293 553.596863,347.858734 553.640015,345.100586 
z"/>
<path fill="#000000" opacity="1.000000" stroke="none" 
	d="
M856.924377,194.097733 
	C856.477661,194.188492 856.147766,194.161835 855.817261,194.146835 
	C853.495972,194.041519 850.917114,194.301849 850.843628,190.843140 
	C850.801025,188.840408 851.778442,187.764313 853.829895,187.730057 
	C857.715454,187.665176 857.232788,190.472107 857.274414,193.354858 
	C857.279968,193.768250 857.040894,193.985718 856.924377,194.097733 
z"/>
</svg>